<mxfile host="app.diagrams.net" modified="2023-04-10T11:09:41.425Z" agent="Mozilla/5.0 (Windows NT 10.0; Win64; x64) AppleWebKit/537.36 (KHTML, like Gecko) Chrome/111.0.0.0 Safari/537.36" etag="qwRck4ZoyfCBbLJFSgC_" version="21.1.5" type="device">
  <diagram name="Page-1" id="739NBmlyZmOkVnN7dqg0">
    <mxGraphModel dx="853" dy="468" grid="0" gridSize="10" guides="1" tooltips="1" connect="1" arrows="1" fold="1" page="0" pageScale="1" pageWidth="850" pageHeight="1100" math="0" shadow="0">
      <root>
        <mxCell id="0" />
        <mxCell id="1" parent="0" />
        <mxCell id="_YywNXq4OuwpvxCSJMrW-1" value="PAKET" style="rounded=0;whiteSpace=wrap;html=1;fontSize=16;" vertex="1" parent="1">
          <mxGeometry x="-161" y="83" width="83" height="37" as="geometry" />
        </mxCell>
        <mxCell id="_YywNXq4OuwpvxCSJMrW-2" value="AKUN" style="rounded=0;whiteSpace=wrap;html=1;fontSize=16;" vertex="1" parent="1">
          <mxGeometry x="-163" y="240" width="97" height="35" as="geometry" />
        </mxCell>
        <mxCell id="_YywNXq4OuwpvxCSJMrW-3" value="PROFIL" style="rounded=0;whiteSpace=wrap;html=1;fontSize=16;" vertex="1" parent="1">
          <mxGeometry x="-147" y="401" width="93" height="32" as="geometry" />
        </mxCell>
        <mxCell id="_YywNXq4OuwpvxCSJMrW-4" value="METODE PEMBAYARAN" style="rounded=0;whiteSpace=wrap;html=1;fontSize=16;" vertex="1" parent="1">
          <mxGeometry x="22" y="91" width="120" height="60" as="geometry" />
        </mxCell>
        <mxCell id="_YywNXq4OuwpvxCSJMrW-5" value="VIDEO" style="rounded=0;whiteSpace=wrap;html=1;fontSize=16;" vertex="1" parent="1">
          <mxGeometry x="76" y="250" width="61" height="49" as="geometry" />
        </mxCell>
        <mxCell id="_YywNXq4OuwpvxCSJMrW-6" value="EPISODE" style="rounded=0;whiteSpace=wrap;html=1;fontSize=16;" vertex="1" parent="1">
          <mxGeometry x="57.5" y="360" width="98" height="41" as="geometry" />
        </mxCell>
        <mxCell id="_YywNXq4OuwpvxCSJMrW-8" value="Berlangganan" style="rhombus;whiteSpace=wrap;html=1;fontSize=16;" vertex="1" parent="1">
          <mxGeometry x="-179" y="140" width="119" height="80" as="geometry" />
        </mxCell>
        <mxCell id="_YywNXq4OuwpvxCSJMrW-13" value="Nama" style="ellipse;whiteSpace=wrap;html=1;fontSize=16;" vertex="1" parent="1">
          <mxGeometry x="-334" y="40" width="99" height="43" as="geometry" />
        </mxCell>
        <mxCell id="_YywNXq4OuwpvxCSJMrW-14" value="Deskripsi" style="ellipse;whiteSpace=wrap;html=1;fontSize=16;" vertex="1" parent="1">
          <mxGeometry x="-325.25" y="87" width="119" height="39" as="geometry" />
        </mxCell>
        <mxCell id="_YywNXq4OuwpvxCSJMrW-15" value="Harga" style="ellipse;whiteSpace=wrap;html=1;fontSize=16;" vertex="1" parent="1">
          <mxGeometry x="-292" y="129" width="88" height="34" as="geometry" />
        </mxCell>
        <mxCell id="_YywNXq4OuwpvxCSJMrW-16" value="Email" style="ellipse;whiteSpace=wrap;html=1;fontSize=16;" vertex="1" parent="1">
          <mxGeometry x="-342" y="164" width="99" height="33" as="geometry" />
        </mxCell>
        <mxCell id="_YywNXq4OuwpvxCSJMrW-17" value="Sandi" style="ellipse;whiteSpace=wrap;html=1;fontSize=16;" vertex="1" parent="1">
          <mxGeometry x="-292" y="196" width="99.5" height="36" as="geometry" />
        </mxCell>
        <mxCell id="_YywNXq4OuwpvxCSJMrW-18" value="No. Telp" style="ellipse;whiteSpace=wrap;html=1;fontSize=16;" vertex="1" parent="1">
          <mxGeometry x="-313" y="234" width="99" height="36" as="geometry" />
        </mxCell>
        <mxCell id="_YywNXq4OuwpvxCSJMrW-19" value="Tgl.Anggota" style="ellipse;whiteSpace=wrap;html=1;fontSize=16;" vertex="1" parent="1">
          <mxGeometry x="-262" y="270" width="99" height="43" as="geometry" />
        </mxCell>
      </root>
    </mxGraphModel>
  </diagram>
</mxfile>
